<!DOCTYPE svg PUBLIC "-//W3C//DTD SVG 1.1//EN" "http://www.w3.org/Graphics/SVG/1.1/DTD/svg11.dtd">
<svg xmlns="http://www.w3.org/2000/svg" xmlns:xlink="http://www.w3.org/1999/xlink" version="1.1" id="Layer_1" width="512px" height="512px" viewport="0 0 512 512">
<style>
/* <![CDATA[*/

.fillSuitColor {
	fill: #E78724;
}
.fillSuitHighlight {
	fill: #FBA919;
}
.fillTieColor {
	fill: #463014;
}

/*]]>*/
</style>
<g id="Mirror">
	<path id="frame" fill="#EFB754" stroke="#000000" stroke-width="6" stroke-miterlimit="10" d="M469.97,257.236 c0,121.186-99.761,212.093-212.095,212.093c-117.136,0-212.094-94.958-212.094-212.093c0-117.136,94.958-212.094,212.094-212.094 C375.012,45.142,469.97,140.1,469.97,257.236z"/>
	<path id="glass" fill="#AACCCE" stroke="#000000" stroke-width="4" stroke-miterlimit="10" d="M447.758,257.236 c0,108.313-89.162,189.561-189.56,189.561c-104.692,0-189.562-84.869-189.562-189.561c0-104.692,84.869-189.562,189.562-189.562 C362.889,67.676,447.758,152.544,447.758,257.236z"/>
</g>
<g id="Skin">
	<path id="body" fill="#FFCBA2" stroke="#000000" stroke-width="4" stroke-miterlimit="10" d="M242.709,247.105 c0,0,24.977-8.782,46.657,0c21.68,8.783,37.255,33.79,41.586,38.122c4.333,4.332,21.66,3.465,39.854,11.264 c18.192,7.797,17.326,2.599,24.259,12.128c6.932,9.528,3.467,31.192,5.197,60.649c1.733,29.454-7.798,101.364-8.665,107.43 c-0.865,6.065-64.114,9.53-77.109,9.53s-82.307,11.264-90.104,13.861c-7.799,2.598-28.592,6.065-37.255,6.065 s-28.591-9.529-32.056-14.729c-3.467-5.199-9.532-23.394-9.532-23.394s20.078,4.03,27.876,4.03c7.797,0,30.176,0.304,38.837-6.63 c8.663-6.933-12.13-23.394-12.13-23.394s-12.995-47.648-12.995-49.383c0-1.735-25.124,44.186-32.056,49.383 c-6.933,5.199-25.992,13.864-31.191,12.997c-5.198-0.868-19.929-14.73-19.061-25.128c0.866-10.396,13.861-70.178,14.728-75.377 c0.867-5.197,10.396-60.215,14.731-61.729c4.331-1.516,38.986-21.431,51.114-17.971c12.13,3.459,27.725-9.537,31.19-13.002 C220.052,258.366,242.709,247.105,242.709,247.105z"/>
	<path id="thumb" fill="none" stroke="#000000" stroke-width="5" stroke-miterlimit="10" d="M196.228,488.834c0,0-27.361,3.48-26.004-15.595"/>
	<path id="face_fill" fill="#FFCBA2" d="M155.073,100.688c0,0,10.396-48.518,51.983-58.916 c41.587-10.396,69.803-10.92,89.239,7.798c23.393,22.526,23.393,49.385,28.591,72.778c5.198,23.392,0,32.057,0,32.057 s6.064-6.933,12.995-6.066c6.931,0.867,9.53,18.195,9.53,25.125c0,6.932-6.934,21.661-10.396,27.726 c-3.465,6.064-6.931,8.663-6.931,8.663s0.864,18.194-0.866,23.393c-1.732,5.199-41.586,49.383-47.651,53.716 c-6.063,4.333-19.063,8.664-30.324,3.466c-11.262-5.199-51.69-27.789-56.021-37.318c-4.33-9.531-8.959-21.164-8.959-21.164 s-20.36-13.862-23.825-21.66c-3.466-7.797-10.396-39.855,0-37.255c10.396,2.599,5.197,2.599,5.197,2.599 S155.073,118.882,155.073,100.688z"/>
	<g id="shadows">
		<path id="left_cheek" fill="#FFF1EB" d="M281.566,286.963c0,0,35.212-47.002,32.983-70.935c-2.229-23.934-7.694-79.384-16.44-106.676 c-8.748-27.292-5.719-18.626-5.719-18.626l15.92,10.83c0,0,19.568,79.708,19.589,91.404c0.019,11.696,3.754,36.48,1.318,40.287 C326.784,237.054,289.799,278.73,281.566,286.963z"/>
		<path id="right_cheek" fill="#FFF1EB" d="M255.575,291.96c-1.644-0.481-42.887-28.823-48.518-46.15c-5.631-17.328-11.699-35.332-11.699-35.332 S171.159,99.823,175.247,90.726c4.086-9.098-8.911,16.894-5.444,35.955c3.465,19.06,14.293,86.206,14.293,86.206 s0.052,14.099,3.704,22.863c3.652,8.764,8.119,21.958,27.316,33.852C234.314,281.492,255.575,291.96,255.575,291.96z"/>
		<polygon id="nose" fill="#FFF1EB" points="237.598,212.032 245.609,182.432 255.575,217.652 "/>
	</g>
	<path id="face_edge" fill="none" stroke="#000000" stroke-width="4" stroke-miterlimit="10" d="M154.553,100.688 c0,0,10.396-48.517,51.984-58.914c41.587-10.397,69.802-10.921,89.236,7.797c23.395,22.525,23.395,49.385,28.593,72.778 c5.198,23.392,0,32.056,0,32.056s6.064-6.932,12.996-6.065c6.931,0.866,9.529,18.195,9.529,25.125 c0,6.932-6.933,21.661-10.396,27.726c-3.467,6.064-6.934,8.663-6.934,8.663s0.866,18.194-0.865,23.393 c-1.734,5.199-41.588,49.384-47.652,53.717c-6.064,4.332-19.063,8.663-30.323,3.466c-11.262-5.199-51.689-27.789-56.021-37.319 c-4.331-9.53-8.958-21.164-8.958-21.164s-20.361-13.862-23.827-21.66c-3.465-7.797-10.396-39.854,0-37.254 c10.396,2.599,5.199,2.599,5.199,2.599S154.553,118.882,154.553,100.688z"/>
</g>
<g id="Jacket">
	<path id="shirt" fill="#F3FEFF" stroke="#000000" stroke-width="5" stroke-miterlimit="10" d="M205.088,269.6c0,0,4.923-3.365,6.573-0.787 c8.279,12.932,34.018,52.047,44.131,54.756h5.522c0,0,28.05-9.748,45.84-59.688l14.529,30.448l-58.744,124.111h-27.942 l-40.287-128.66L205.088,269.6z"/>
	<path id="jacket_breast" class="fillSuitColor" d="M211.161,264.999c0,0,18.278,59.192,23.991,72.869 c7.557,18.091,22.997,39.599,22.997,39.599s0,0,6.83-9.185c5.738-7.716,24.733-32.983,28.021-41.897 c8.667-23.494,12.609-62.685,12.609-62.685l9.771-9.713c0,0,10.856,21.589,45.485,33.845 c34.632,12.256,41.537,21.968,41.537,21.968s1.306,172.911-5.199,176.185c-6.506,3.273-152.168,16.572-152.168,16.572 l-21.328,3.813l-3.826-44.09l-1.37-4.724l-23.802-13.646l-9.988-33.393l-32.092,39.615c0,0-32.045,2.495-40.5-1.751 c-12.193-6.124-20.997-6.067-17.296-27.867c3.702-21.799,17.732-77.723,17.732-77.723s23.686,41.479,40.825,25.489 c9.479-8.846,6.75-18.395,6.75-18.395l5.963-25.541l-0.635-32.056L211.161,264.999z"/>
	<g id="jacket_breast_highlights" class="fillSuitHighlight">
		<path d="M112.566,344.83c0,0-26.415,85.31-14.98,94.729c11.434,9.424,12.903,10.149,12.903,10.149 s-9.134-11.341-8.701-20.438c0.434-9.096,18.322-85.849,18.322-85.849L112.566,344.83z"/>
		<path d="M305.609,265.736l29.242,27.068l-14.62,93.4l8.986-0.951l14.256-90.066l48.125,22.967V474.97 c0,0-2.222,13.478-5.941,13.917c-3.724,0.438,14.193-1.304,14.816-7.851c0.625-6.546,2.122-154.651,2.122-154.651l-0.192-14.548 l-54.583-27.292l-11.523-7.447l-20.915-23.112L305.609,265.736z"/>
		<polygon points="302.552,398.419 240.414,445.947 252.63,447.134 308.982,409.991   "/>
		<path d="M256.009,447.134l84.474-15.048c0,0,3.899-0.002,9.53,5.197c5.632,5.198,5.632,5.198,5.632,5.198 l-80.945,9.688C274.698,452.171,263.966,454.16,256.009,447.134z"/>
		<polygon points="194.71,385.254 187.127,317.287 196.524,317.287 203.591,385.254   "/>
		<polygon points="215.286,404.362 236.39,423.922 240.179,416.128 218.512,395.877   "/>
	</g>
	<g id="Jacket_Details_2_">
		<polyline fill="none" stroke="#000000" stroke-width="4" stroke-miterlimit="10" points="345.339,283.402 329.219,385.254  298.027,388.548   "/>
		<path fill="none" stroke="#000000" stroke-width="4" stroke-miterlimit="10" d="M276.343,353.425 c2.841,2.634,32.641,56.566,32.641,56.566l-55.573,35.956"/>
		<polyline fill="none" stroke="#000000" stroke-width="4" stroke-miterlimit="10" points="258.197,326.385 240.414,349.771  214.585,404.143 236.054,424.628   "/>
		<polyline fill="none" stroke="#000000" stroke-width="4" stroke-miterlimit="10" points="223.396,385.254 194.71,385.254  186.645,312.956   "/>
		<line fill="none" stroke="#000000" stroke-width="3" stroke-miterlimit="10" x1="258.197" y1="326.385" x2="276.343" y2="353.425"/>
		<path id="Jacket_-_UnderL_2_" fill="none" d="M197.717,456.092c0,0-11.696-38.338-12.995-43.536 c-1.299-5.197-28.591,42.888-38.338,43.536c-9.747,0.65-37.69-14.296-29.892-39.638c3.074-9.985,40.896-33.136,43.063-63.122 c0.391-5.396,19.371-5.639,21.076-10.928c8.967-27.818-25.151-47.463-25.151-47.463l56.478-25.342c0,0,21.74,87.107,46.19,107.867 "/>
		<path id="Jacket_-_Sleeve_L_2_" fill="none" stroke="#000000" stroke-width="4" stroke-miterlimit="10" d="M112.566,344.83 c0.702-0.702,5.884-2.784,7.544,0c0.361,0.605-1.574,7.891-1.164,8.595c6.036,10.317,15.843,26.873,35.604,16.991 c0,0,0.679-1.189,3.279-8.986c6.173,0,9.319,2.414,7.371,12.078c-1.949,9.662-14.026,75.146-14.026,75.146 s-24.053,4.86-34.255,3.153c-10.2-1.709-23.197-12.755-22.547-20.555C95.023,423.456,92.423,418.907,112.566,344.83z"/>
		<path id="Jacket_-_Under_R_2_" fill="none" stroke="#000000" stroke-width="4" stroke-miterlimit="10" d="M305.609,265.736 c0,0-3.274,53.25-29.268,87.688c-25.991,34.438-57.831,109.815-57.831,109.815l0,0l2.598-1.084l2.6,44.212l21.328-3.813 l130.725-12.676c0,0,18.846-1.298,21.443-3.896c2.601-2.601,3.898-1.949,5.198-32.49c1.3-30.542,1.3-139.058,0-141.656 s-49.387-26.642-54.583-27.292c-5.198-0.65-28.999-25.992-28.999-27.906c0-1.914-3.439-2.652-3.439-2.652L305.609,265.736z"/>
		<polyline fill="none" stroke="#000000" stroke-width="4" stroke-miterlimit="10" points="251.242,447.134 340.481,432.086  345.339,363.208   "/>
		<polyline fill="none" stroke="#000000" stroke-width="6" stroke-miterlimit="10" points="150.31,452.171 184.722,412.556  196.524,452.171   "/>
		<path fill="none" stroke="#000000" stroke-width="4" stroke-miterlimit="10" d="M209.054,269.6c0,0,26.561,73.813,31.125,78.946"/>
	</g>
	<polygon id="tie" class="fillTieColor" stroke="#000000" stroke-width="4" stroke-miterlimit="10" points="258.197,326.385  240.414,349.771 258.148,377.467 275.337,351.926  "/>
	<line fill="none" stroke="#000000" stroke-width="3" stroke-miterlimit="10" x1="161.42" y1="346.443" x2="157.829" y2="361.43"/>
</g>
<g id="Accessories">
	<g id="hair">
		<path id="hair_fill" fill="#946E1C" d="M184.096,212.032c-1.949-0.217-40.738-85.352-40.738-85.352l-7.147-1.95l2.599-3.249 l-8.448-1.95c0,0-3.249-15.595,22.094-58.481c25.342-42.887,49.385-44.187,110.037-48.086 c60.651-3.898,92.699,68.879,92.699,68.879s-4.55,9.097-10.396,23.393c-5.848,14.295-16.895,93.571-16.895,87.723 s-15.596-87.723-18.845-96.82c-3.248-9.097-37.039-29.24-32.492-25.341c4.552,3.898,12.998,30.54,12.998,30.54 s-18.845-9.746-25.342-12.995c-6.496-3.25-29.241-17.544-29.241-17.544s-40.288,4.548-51.334,13.646 c-11.047,9.097-11.697,4.548-13.646,24.691c-1.949,20.143,6.95,65.629,6.95,65.629S184.162,210.353,184.096,212.032z"/>
		<path fill="#5D4D2A" d="M314.551,71.333l25.064,20.908l13.078-5.161c0,0-9.54,22.411-11.032,29.371 c-1.493,6.959-13.762,76.508-13.762,76.508L306.256,91.958l15.429,9.597L314.551,71.333z"/>
		<polygon fill="#5D4D2A" points="168.901,116.933 184.096,212.032 143.357,126.681 149.225,122.781 146.625,116.933  168.901,101.555   "/>
		<path fill="#EFB754" d="M353.353,85.67l1.839-3.826c0,0-38.102-77.758-111.605-71.979c-74.938,5.892-78.588,29.451-100.228,67.718 s-11.693,42.25-10.778,42.46c0,0,1.269-11.99,6.898-22.388c5.633-10.397,21.853-50.737,44.618-63.075 c28.296-15.334,65.296-23.057,96.818-14.034C309.147,28.627,327.667,43.361,353.353,85.67"/>
		<path id="hair_line" fill="none" stroke="#000000" stroke-width="4" stroke-miterlimit="10" d="M184.096,212.032 c-1.949-0.217-40.738-85.352-40.738-85.352l-7.147-1.95l2.599-3.249l-8.448-1.95c0,0-3.249-15.595,22.094-58.481 c18.175-30.757,33.587-39.872,62.287-47.699c22.856-6.233,56.368-3.083,72.657,2.411c48.869,16.477,69.546,65.866,69.546,65.866 s-6.304,9.313-12.15,23.609c-5.848,14.295-16.895,93.571-16.895,87.723s-15.596-87.723-18.845-96.82 c-3.248-9.097-37.039-29.24-32.492-25.341c4.552,3.898,12.998,30.54,12.998,30.54s-18.845-9.746-25.342-12.995 C257.725,85.094,234.98,70.8,234.98,70.8s-40.288,4.548-51.334,13.646c-11.047,9.097-11.697,4.548-13.646,24.691 s6.95,65.629,6.95,65.629S184.162,210.353,184.096,212.032z"/>
		<path id="hair_part" fill="none" stroke="#000000" stroke-width="4" stroke-miterlimit="10" d="M292.391,80.344l27.73,21.211 c0,0-3.624-30.325-9.177-39.855"/>
	</g>
	<g id="expression">
		<path fill="none" stroke="#000000" stroke-width="8" stroke-miterlimit="10" d="M255.575,135.214c0,0,28.155-10.267,50.681,6.195"/>
		<path fill="none" stroke="#000000" stroke-width="8" stroke-miterlimit="10" d="M233.05,151.806c0,0-23.012-12.563-46.405,2.166"/>
		<path fill="none" stroke="#000000" stroke-width="4" stroke-miterlimit="10" d="M242.709,236.713c0,0,8.533,2.057,15.488,0 c10.592-3.133,27.27-17.329,27.701-19.062"/>
		<path fill="none" stroke="#000000" stroke-width="2" stroke-miterlimit="10" d="M283.083,216.028c0,0,4.767,0.689,5.198,5.951"/>
		<polygon fill="none" stroke="#000000" stroke-width="5" stroke-miterlimit="10" points="269.761,203.031 255.575,220.576  237.598,212.032 255.575,217.652   "/>
	</g>
	<g id="glasses">
		<path fill="#F3FEFF" d="M260.12,172.952c-1.707-7.934,2.585-13.757,4.972-16.618c5.708-6.841,18.229-11.459,31.893-9.899 c8.846,1.01,14.243,6.924,16.671,12.735c2.807,6.714,2.331,21.582-9.755,28.591c-10.83,6.281-18.629,5.631-26.644,3.465 C268.923,188.975,261.398,178.897,260.12,172.952z"/>
		<path fill="#F3FEFF" d="M235.82,177.333c-2.082-7.845-8.549-11.085-11.975-12.551c-8.191-3.502-21.443-1.934-32.911,5.66 c-7.422,4.915-9.546,12.636-9.07,18.914c0.549,7.258,7.721,20.289,21.671,21.047c12.502,0.68,19.156-3.44,25.312-9.009 C235.251,195.605,237.379,183.21,235.82,177.333z"/>
		<path fill="#AACCCE" d="M235.039,190.406c0,0,5.316-31.321-25.718-27.045c-19.159,2.64-27.374,15.473-27.414,20.756 c-0.107,15.065,8.526,20.989,8.526,20.989s-9.537-13.694,0.702-25.277c6.822-7.718,20.993-13.542,33.48-7.718 C235.82,177.333,235.039,190.406,235.039,190.406z"/>
		<path fill="#AACCCE" d="M313.654,166.898c0,0,0-30.169-35.383-17.245c-15.861,5.792-18.547,18.032-18.151,23.298 c0.394,5.27,7.921,12.612,7.921,12.612s-7.282-14.025-0.771-21.871c8.067-9.722,15.506-13.367,29.135-11.346 C307.358,153.972,313.654,166.898,313.654,166.898z"/>
		<path fill="none" stroke="#000000" stroke-width="5" stroke-miterlimit="10" d="M260.12,172.952 c-1.707-7.934,2.585-13.757,4.972-16.618c5.708-6.841,18.229-11.459,31.893-9.899c8.846,1.01,14.243,6.924,16.671,12.735 c2.807,6.714,2.331,21.582-9.755,28.591c-10.83,6.281-18.629,5.631-26.644,3.465C268.923,188.975,261.398,178.897,260.12,172.952z "/>
		<path fill="none" stroke="#000000" stroke-width="5" stroke-miterlimit="10" d="M235.82,177.333 c-2.082-7.845-8.549-11.085-11.975-12.551c-8.191-3.502-21.443-1.934-32.911,5.66c-7.422,4.915-9.546,12.636-9.07,18.914 c0.549,7.258,7.721,20.289,21.671,21.047c12.502,0.68,19.156-3.44,25.312-9.009C235.251,195.605,237.379,183.21,235.82,177.333z"/>
		<path fill="none" stroke="#000000" stroke-width="5" stroke-miterlimit="10" d="M236.188,176.756c0,0,2.813-4.647,10.528-6.865 c5.838-1.678,13.126,0,13.126,0"/>
		<path fill="none" stroke="#000000" stroke-width="5" stroke-miterlimit="10" d="M314.551,162.108c0,0,16.639-9.219,22.813-13.768"/>
		<path fill="none" stroke="#000000" stroke-width="5" stroke-miterlimit="10" d="M180.545,192.753c0,0-22.182-25.786-18.629-19.72"/>
		<circle stroke="#000000" stroke-width="2" stroke-miterlimit="10" cx="287.4" cy="163.693" r="5.738"/>
		<circle stroke="#000000" stroke-width="2" stroke-miterlimit="10" cx="214.792" cy="179.828" r="5.738"/>
	</g>
	<g id="tea_cup">
		<g id="cup">
			<path id="cup_2_" fill="#F3FEFF" d="M108.305,271.43c0,0,10.685-10.041,35.528-13.131c25.485-2.573,46.47-0.515,61.015,6.566 c15.317,9.525,16.99,10.426,17.765,18.922c0.771,8.497-6.952,59.47-29.351,68.736c-22.398,9.27-58.891,6.761-68.159-6.758 c-3.323-4.845-18.343-30.313-21.149-62.365C103.942,275.098,106.565,273.456,108.305,271.43z"/>
			<path fill="#AACCCE" d="M209.964,268.057c0,0-10.582,67.139-24.601,72.812c-14.018,5.673-57.308,9.716-60.261,4.899 c-2.95-4.817,10.006,19.493,61.812,8.969c0,0,15.32-3.662,21.6-17.527c6.279-13.863,14.883-48.77,14.099-53.42 C221.83,279.136,209.964,268.057,209.964,268.057z"/>
			<path id="cup_1_" fill="none" stroke="#000000" stroke-width="6" stroke-miterlimit="10" d="M108.305,271.43 c0,0,10.685-10.041,35.528-13.131c25.485-2.573,46.47-0.515,61.015,6.566c15.317,9.525,16.99,10.426,17.765,18.922 c0.771,8.497-6.952,59.47-29.351,68.736c-22.398,9.27-58.891,6.761-68.159-6.758c-3.323-4.845-18.343-30.313-21.149-62.365 C103.942,275.098,106.565,273.456,108.305,271.43z"/>
			
		</g>
		<g id="saucer">
			<polygon id="saucer_2_" fill="#F3FEFF" points="107.853,445.947 253.409,445.947 203.591,473.239 154.637,473.239   "/>
			<polygon fill="#AACCCE" points="225.593,447.134 196.524,464.142 141.208,464.142 154.637,473.239 203.591,473.239  248.621,445.947   "/>
			<polygon id="saucer_1_" fill="none" stroke="#000000" stroke-width="6" stroke-miterlimit="10" points="107.853,445.947  253.409,445.947 203.591,473.239 154.637,473.239   "/>
		</g>
	</g>
	<g id="logo" transform="translate(120, 268) scale(.25)">
		<!-- TODO This is where remote logos go. -->
	    <g id="gruntlogo" xmlns="http://www.w3.org/2000/svg"> <path fill="#FBA919" d="M67.892,81.419c0,0,5.737,22.127,6.555,29.504c0.821,7.375-14.751,23.765-14.751,31.961    c0,8.196,3.274,22.947,21.306,30.324c18.032,7.376,20.488,26.224,20.488,37.7c0,11.473-6.555,33.598-6.555,33.598    s-4.096,54.908,18.029,64.742c22.125,9.833,17.21,9.833,22.125,9.833c4.916,0,40.977,14.755,62.283,9.018    c21.308-5.737,27.041-12.292,27.041-12.292s21.31,1.637,27.865-17.214c6.559-18.847,10.654-58.183,8.195-76.214    c-2.459-18.032-5.736-41.794,9.014-49.991c14.755-8.196,30.324-18.027,27.865-26.224c-2.459-8.196-15.568-19.67-15.568-19.67    s-3.279-20.486-0.822-25.404c2.457-4.917,17.21-17.213,9.014-26.226c-8.191-9.014-22.947-9.014-22.947-9.014l-18.847,1.637    c0,0-31.961-28.682-73.757-27.043c-41.794,1.639-68.021,27.043-68.021,27.043s-13.93-4.917-26.224,0    C67.886,72.406,65.435,67.486,67.892,81.419z"/> <path fill="#E78724" d="M142.775,203.437c0,0-16.229,24.815-28.133,42.425c-1.842,2.724,11.904,2.913,11.904,2.913    L142.775,203.437z"/> <path fill="#E78724" d="M150.502,151.989c0,0-4.892,12.205-7.572,18.675c-2.909,7.034-14,10.533-14,10.533    s5.749-6.03,5.749-21.306c0-6.409,8.274-8.957,8.274-8.957L150.502,151.989z"/> <path fill="#E78724" d="M145.56,158.89c0,0-10.023,11.931-28.633,5.249c-18.614-6.68-20.522-30.545-20.522-37.227    c0-6.682,35.317,6.682,40.091,9.546S150.332,150.775,145.56,158.89z"/> <path fill="#E78724" d="M75.261,31.399c0,0,17.18-3.343,28.633,5.726c11.458,9.067,14.794,16.228,14.794,16.228L99.383,68.656    c0,0-9.328-4.325-12.192-16.735C84.328,39.512,86.237,33.786,75.261,31.399z"/> <path fill="#E78724" d="M140.549,124.427c-7.397-10.5-19.587-15.08-29.32-15.839c-16.596-1.298-24.475,4.569-24.475,4.569    s27.18,1.151,35.014,11.44c14.584,19.15,35.86,20.706,39.262,16.5c-3.934,0.196-8.262-1.753-12.894-6.133    C145.242,132.224,142.896,127.76,140.549,124.427z"/> <path fill="#E78724" d="M94.666,161.554c0,0-30.157-10.367-24.425-20.865c5.726-10.501,1.168-16.222,1.168-16.222    s-16.839,12.57-12.548,25.932c2.637,8.202,7.061,14.14,31.354,25.525c11.652,21.643,2.406,60.6,2.96,60.783    c0.923,0.307,16.36-7.63,15.306-44.077C108.16,181.438,107.265,166.159,94.666,161.554z"/> <path fill="#E78724" d="M134.184,50.074c-12.645,6.424-29.968,15.37-29.968,15.37l6.818,3.411    c-0.651,1.054-0.965,1.683-0.965,1.683l6.998,3.182c0,0,17.083,12.375,27.55,20.331c-3.49-10.746-13.734-27.628-13.734-27.628    S127.98,58.666,134.184,50.074z"/> <path fill="#E78724" d="M176.191,311.934c-38.866,0-52.031-19.731-52.031-19.731l6.074,14.791    c2.296,6.399,26.788,26.311,45.898,26.311"/> <path fill="#E78724" d="M128.419,278.871c0,0,3.576,21.854,17.894,21.854c12.167,0,15.752-18.46,15.752-22.275L128.419,278.871z"/> <path fill="#E78724" d="M104.592,245.912c1.272-3.502,5.726-17.66,7.157-30.545c1.715-15.432,1.09-38.003,1.09-38.003    s-3.82,14.795-7.161,17.186c-3.339,2.385-9.545,18.61-9.545,18.61s-3.324,24.156-4.906,32.275    C95.605,246.312,99.291,243.732,104.592,245.912z"/> <path fill="#E78724" d="M70.016,150.162c0,0,8.111-2.866,10.5-20.522c2.385-17.66-2.866-32.932-2.866-32.932    s0.477,24.34-2.385,29.114c-2.866,4.771-5.249,6.203-8.592,12.409C63.33,144.438,68.104,148.252,70.016,150.162z"/> <path fill="#87CCEE" d="M113.063,69.061"/> <path fill="#FDC168" d="M79.701,35.576l-1.656-1.049C73.162,34.692,79.701,35.576,79.701,35.576z"/> <path fill="#FBA919" d="M140.786,44.846c0,0-7.634-1.272-11.454-6.998c-3.82-5.728-14.636-17.184-31.879-17.312    c-17.242-0.129-34.301,4.583-34.301,4.583l14.891,9.409c1.575-0.051,4.329-0.03,8.883,0.122    c18.688,0.621,21.565,19.106,21.565,19.106l65.862-9.069"/> <path fill="#FFFFFF" d="M147.151,146.942c0,0-8.91,8.91-22.593,6.044c-13.683-2.862-21.957-8.908-22.593-19.409    c-0.636-10.5,2.866-14.636,2.866-14.636s15.271,4.776,22.593,11.14C134.742,136.443,140.15,146.625,147.151,146.942z"/> <path fill="#C9C9C9" d="M136.368,143.759c0,0-7.727,3.53-16.364,0.655c-11.306-3.771-12.059-15.529-12.059-15.529    s-6.936,20.354,12.51,24.272c15.597,3.142,24.821-5.896,24.821-5.896L136.368,143.759z"/> <path fill="#463014" d="M145.249,257.84"/> <path fill="#463014" d="M141.859,40.528c-0.831-17.456,13.479-31.359,18.437-31.951c0.274,2.958-0.276,14.496,4.681,18.044    C166.42,17.197,171.3,6.807,190.57,0c-4.127,10.946-0.551,20.115,1.152,24.365c13.159-11.944,22.025-9.97,22.025-9.97    s-9.143,15.777-5.567,26.129C181.764,38.453,141.988,43.331,141.859,40.528z"/> <path fill="#463014" d="M85.857,67.117c-6.303-5.229-1.605-10.082-2.103-16.023c-0.271-3.161-0.521-6.144-1.563-7.789    c-5.8-9.159-19.483-11.938-19.62-11.967l-6.422-1.258l4.251-4.973c0.551-0.644,18.009-17.301,45.025-8.579    c18.898,6.095,32.888,26.763,33.409,27.598l-9.476,4.456c-0.111-0.176-11.171-19.603-27.384-24.831    c-13.106-4.229-25.185-0.206-30.359,2.431c5.5,2.196,12.691,6.195,17.024,13.036c2.044,3.231,2.389,7.299,2.722,11.238    c0.439,5.215,0.85,10.138,4.688,13.326L85.857,67.117z"/> <path fill="#463014" d="M69.023,143.45c0,0,7.941-9.847,10.293-29.008c0.924-7.547-0.717-22.433-3.343-28.16    c0.477,14.079-3.102,28.16-3.102,28.16S70.458,140.586,69.023,143.45z"/> <path fill="#463014" d="M110.896,57.172c-0.004-0.021-2.548-11.138-9.601-16.75c-9.949-7.914-22.097-3.704-22.214-3.667    l-1.764-5.449c0.588-0.191,14.473-4.566,27.269,4.429c12.873,9.046,14.418,17.246,14.552,18.152L110.896,57.172z"/> <path fill="#463014" d="M93.964,136.388c0,0-4.166-5.964-3.417-12.523c0.373-3.239,1.874-6.564,4.554-7.744    c4.98-2.188,7.187,3.457,7.187,3.457S95.279,121.308,93.964,136.388z"/> <path fill="#463014" d="M145.249,257.84"/> <path fill="#463014" d="M139.707,145.478c0.174,0.325,0.263,0.507,0.263,0.507s-12.994,9.752-26.311-0.144    c-7.128-5.302-6.455-18.417-4.271-23.979c5.679,1.287,10.496,3.607,14.522,6.316c-5.088-4.541-9.542-7.884-9.53-7.961    l-5.783-1.637l-11.24-3.854c-0.144,0.857-4.244,20.074,7.59,33.168c5.245,5.806,29.835,18.808,41.51-3.424L139.707,145.478z"/> <path fill="#463014" d="M138.49,146.907c7.316,11.135,25.775,4.772,25.457-7c0,0-12.334,6.807-23.231-5.726    c-6.362-7.317-26.748-27.492-54.394-20.787C105.414,117.592,130.689,135.035,138.49,146.907z"/> <g> <path fill="#463014" d="M145.249,257.84"/> </g> <path fill="#463014" d="M83.739,178.333c1.76,1.017,7.967,7.445,7.971,17.059c0,4.821-0.48,29.04-2.866,43.836    c3.589,2.332,6.089,2.828,9.663,5.205c1.789-17.136,3.072-41.972,2.474-51.998c-0.684-11.429-6.803-19.099-12.478-22.37    c-1.777-1.022-3.634-2.027-5.504-3.038c-9.72-5.252-19.771-10.685-19.771-19.962c0-7.257,2.821-9.527,5.808-11.933l0.322-0.261    c1.982-1.601,4.225-3.417,5.554-6.399c3.626-8.153,4.219-28.921,0-34.193c-2.103-2.627-7.738-11.461-6.118-17.397    c0.617-2.266,2.044-3.945,4.367-5.135c2.458-1.259,5.779-1.897,9.867-1.897c8.03,0,16.936,2.444,21.531,3.899    c16.419,5.204,36.231,20.208,41.91,24.683c0.163,0.125,0.259,0.198,0.276,0.21l3.634,2.527l-2.273-3.803    c-0.14-0.237-14.534-23.905-40.271-32.583c-5.007-1.688-14.844-4.521-24.511-4.521c-5.756,0-10.64,1.005-14.507,2.985    c-4.713,2.411-7.905,6.258-9.231,11.121c-3.25,11.921,7.335,25.194,7.696,25.618c1.234,2.203,1.757,18.206-1.094,24.611    c-0.392,0.884-1.467,1.753-2.828,2.851c-0.426,0.345-0.903,0.703-1.408,1.086c-4.022,3.036-10.104,7.623-10.104,18.196    c0,14.467,14.662,22.311,26.445,28.618C80.226,176.388,82.071,177.372,83.739,178.333z"/> <g> <g> <path fill="#463014" d="M85.857,67.117c-6.303-5.229-1.605-10.082-2.103-16.023c-0.271-3.161-0.521-6.144-1.563-7.789      c-5.8-9.159-19.483-11.938-19.62-11.967l-6.422-1.258l4.251-4.973c0.551-0.644,18.009-17.301,45.025-8.579      c18.898,6.095,32.888,26.763,33.409,27.598l-9.476,4.456c-0.111-0.176-11.171-19.603-27.384-24.831      c-13.106-4.229-25.185-0.206-30.359,2.431c5.5,2.196,12.691,6.195,17.024,13.036c2.044,3.231,2.389,7.299,2.722,11.238      c0.439,5.215,0.85,10.138,4.688,13.326L85.857,67.117z"/> </g> <g> <path fill="#463014" d="M85.652,68.188l-0.407-0.337c-4.674-3.879-3.845-7.7-3.042-11.397c0.365-1.706,0.75-3.47,0.594-5.279      c-0.255-3.042-0.5-5.912-1.416-7.361c-5.523-8.72-18.87-11.514-19.002-11.541L54.358,30.7l5.317-6.216      c0.097-0.116,11.306-11.431,30.29-11.431c5.175,0,10.477,0.861,15.752,2.565c19.724,6.36,33.795,27.789,33.928,28.001      l0.569,0.91l-11.209,5.272l-0.45-0.714c-1.206-2.056-11.834-19.583-26.869-24.433c-3.693-1.192-7.583-1.794-11.56-1.794      c-7.203,0-13.044,1.963-16.152,3.281c5.194,2.339,11.493,6.276,15.479,12.562c2.167,3.424,2.518,7.609,2.862,11.652      c0.422,5.028,0.821,9.756,4.348,12.684l1.331,1.104L85.652,68.188z"/> </g> </g> <g> <g> <path fill="#463014" d="M110.896,57.172c-0.004-0.021-2.548-11.138-9.601-16.75c-9.949-7.914-22.097-3.704-22.214-3.667      l-1.764-5.449c0.588-0.191,14.473-4.566,27.269,4.429c12.873,9.046,14.418,17.246,14.552,18.152L110.896,57.172z"/> </g> <g> <path fill="#463014" d="M110.212,58.472l-0.248-1.094c-0.026-0.107-2.521-10.844-9.266-16.207      c-3.844-3.061-8.48-4.615-13.771-4.615c-4.13,0-7.199,0.986-7.534,1.102l-0.912,0.303l-2.366-7.269l0.907-0.293      c0.407-0.129,4.092-1.278,9.305-1.278c6.877,0,13.379,2.018,18.811,5.832c13.195,9.273,14.806,17.848,14.944,18.794l0.116,0.748      L110.212,58.472z M86.928,34.65c5.652,0,10.829,1.738,14.961,5.024c5.989,4.77,8.806,13.191,9.658,16.21l6.492-2.587      c-0.588-2.292-3.176-9.171-14-16.78c-5.179-3.64-11.136-5.484-17.711-5.484c-3.608,0-6.411,0.574-7.796,0.924l1.171,3.619      C81.061,35.211,83.674,34.65,86.928,34.65z"/> </g> </g> <path fill="#463014" d="M145.715,295.482L145.715,295.482c-2.82,0-5.698-1.023-7.693-2.75c-1.527-1.316-6.691-6.059-8.968-11.87    c-0.85-2.173-0.659-3.911,0.574-5.162c0.85-0.857,2.614-1.882,6.195-1.882l2.548-0.004c3.036-0.003,8.148-0.003,12.517-0.003    h4.189c2.724,0,4.677,0.589,5.8,1.737c1.442,1.482,0.98,3.367,0.577,4.359c-0.702,1.738-3.607,7.394-8.525,12.652    C151.168,294.443,148.605,295.482,145.715,295.482z"/> <path fill="#463014" d="M148.671,147.562l-10.182-0.655c0,0,2.603,4.588,4.289,10.522c1.904,6.712-1.741,16.521-1.741,16.521    S154.613,158.58,148.671,147.562z"/> <g> <path fill="#463014" d="M135.961,322.367c-36.239-2.785-48.989-37.028-48.989-44.16l9.464,0.004l-4.732-0.004h4.732     c0.047,3.083,9.678,32.375,40.25,34.726L135.961,322.367z"/> </g> <path fill="#FFFFFF" d="M125.777,261.016c-0.566-3.273-0.625-6.377,0.066-9.427c-2.754-2.07-7.696-2.839-11.404-4.041    c-3.032-1.919-18.548,1.967-29.805-11.656c-14.104-17.059-11.136-27.244-11.136-27.244c-3.616,4.018-7.121,2.487-12.633,21.221    c-5.52,18.738,2.591,31.801,17.708,44.915c7.142,6.195,17.238,8.747,25.922,9.724c-2.909-2.921,4.969-3.213,10.399-5.245    c-0.433-4.384,0.292-8.64,3.561-12.067c1.971-2.066,4.507-3.301,7.138-4.285c0.147-0.34,0.271-0.654,0.411-0.98    C125.917,261.633,125.832,261.332,125.777,261.016z"/> <path fill="#C9C9C9" d="M114.821,279.149c-0.314-0.92-0.551-1.858-0.784-2.802c-0.251-1.031-1.501-3.952,0.04-0.617    c-0.396-0.854-0.655-1.734-0.846-2.621c-24.482-0.031-45.781-16.84-41.666-52.179c-3.205-4.255-7.693,8.58-7.693,8.58    s-12.256,35.588,19.398,49.381c10.547,4.6,19.868,7.897,22.067,6.566c4.581,0.931,8.716-2.263,10.267-4.363    C115.313,280.449,115.048,279.803,114.821,279.149z"/> <path fill="#463014" d="M125.336,255.892c0.038-2.983,0.647-5.872,2.089-8.751c0.101-0.198,0.218-0.388,0.326-0.581    c-9.421-0.081-20.271-0.983-29.51-4.681c-10.155-4.062-22.858-17.959-25.041-34.287c0,0-19.125,14.758-13.505,46.346    c5.275,29.662,30.096,39.332,58.404,40.968c0.015-0.192-3.184-6.8-2.173-10.845c-16.074,1.168-34.049-5.042-42.726-19.32    c-7.944-13.068-5.716-35.379-2.451-38.648C78.713,251.222,107.369,256.33,125.336,255.892z"/> <path fill="#463014" d="M176.191,294.839"/> <path fill="#463014" d="M128.302,237.902c-5.094,14.949-15.499,27.047-15.499,27.047s14.313-0.651,15.103-3.184    c0.585-1.867,12.924-30.752,17.66-64.589C141.111,204.495,128.738,236.622,128.302,237.902z"/> <path fill="#E78724" d="M209.393,203.437c0,0,16.225,24.815,28.133,42.425c1.842,2.724-11.908,2.913-11.908,2.913L209.393,203.437    z"/> <path fill="#E78724" d="M201.664,151.989c0,0,4.893,12.205,7.569,18.675c2.909,7.034,13.999,10.533,13.999,10.533    s-5.748-6.03-5.748-21.306c0-6.409-8.273-8.957-8.273-8.957L201.664,151.989z"/> <path fill="#E78724" d="M206.605,158.89c0,0,10.023,11.931,28.638,5.249s20.522-30.545,20.522-37.227    c0-6.682-35.317,6.682-40.091,9.546C210.9,139.322,201.834,150.775,206.605,158.89z"/> <path fill="#E78724" d="M276.906,31.399c0,0-17.18-3.343-28.637,5.726c-11.453,9.067-14.795,16.228-14.795,16.228l19.306,15.302    c0,0,9.332-4.325,12.196-16.735C267.838,39.512,265.93,33.786,276.906,31.399z"/> <path fill="#E78724" d="M211.618,124.427c7.397-10.5,19.583-15.08,29.32-15.839c16.597-1.298,24.472,4.569,24.472,4.569    s-27.18,1.151-35.015,11.44c-14.585,19.15-35.854,20.706-39.256,16.5c3.933,0.196,8.263-1.753,12.892-6.133    C206.924,132.224,209.271,127.76,211.618,124.427z"/> <path fill="#E78724" d="M257.501,161.554c0,0,30.153-10.367,24.426-20.865c-5.726-10.501-1.172-16.222-1.172-16.222    s16.843,12.57,12.548,25.932c-2.637,8.202-7.061,14.14-31.354,25.525c-11.652,21.643-2.406,60.6-2.957,60.783    c-0.924,0.307-16.359-7.63-15.305-44.077C244.007,181.438,244.902,166.159,257.501,161.554z"/> <path fill="#E78724" d="M217.984,50.074c12.641,6.424,29.967,15.37,29.967,15.37l-6.817,3.411    c0.651,1.054,0.966,1.683,0.966,1.683l-6.998,3.182c0,0-17.084,12.375-27.551,20.331c3.486-10.746,13.73-27.628,13.73-27.628    S224.189,58.666,217.984,50.074z"/> <path fill="#E78724" d="M175.978,311.934c38.86,0,52.025-19.731,52.025-19.731l-6.07,14.791    c-2.296,6.399-26.79,26.311-45.896,26.311"/> <path fill="#E78724" d="M223.748,278.871c0,0-3.58,21.854-17.894,21.854c-12.165,0-15.751-18.46-15.751-22.275L223.748,278.871z"/> <path fill="#E78724" d="M247.575,245.912c-1.272-3.502-5.726-17.66-7.161-30.545c-1.715-15.432-1.086-38.003-1.086-38.003    s3.819,14.795,7.156,17.186c3.344,2.385,9.546,18.61,9.546,18.61s3.324,24.156,4.906,32.275    C256.559,246.312,252.877,243.732,247.575,245.912z"/> <path fill="#E78724" d="M282.154,150.162c0,0-8.115-2.866-10.5-20.522c-2.385-17.66,2.865-32.932,2.865-32.932    s-0.48,24.34,2.385,29.114c2.866,4.773,5.25,6.203,8.592,12.409C288.834,144.437,284.062,148.252,282.154,150.162z"/> <path fill="#87CCEE" d="M239.106,69.061"/> <path fill="#FDC168" d="M272.465,35.576l1.659-1.049C279.008,34.692,272.465,35.576,272.465,35.576z"/> <path fill="#FBA919" d="M211.378,44.846c0,0,7.638-1.272,11.454-6.998c3.819-5.728,14.639-17.184,31.883-17.312    c17.242-0.129,34.301,4.583,34.301,4.583l-14.892,9.409c-1.575-0.051-4.329-0.03-8.887,0.122    c-18.685,0.621-21.562,19.106-21.562,19.106l-65.86-9.069"/> <path fill="#FFFFFF" d="M205.016,146.942c0,0,8.91,8.91,22.59,6.044c13.684-2.862,21.957-8.908,22.594-19.409    c0.635-10.5-2.863-14.636-2.863-14.636s-15.275,4.776-22.593,11.14S212.018,146.625,205.016,146.942z"/> <path fill="#C9C9C9" d="M215.796,143.759c0,0,7.73,3.53,16.364,0.655c11.309-3.771,12.062-15.529,12.062-15.529    s6.932,20.354-12.514,24.272c-15.594,3.142-24.82-5.896-24.82-5.896L215.796,143.759z"/> <path fill="#463014" d="M206.916,257.84"/> <path fill="#463014" d="M266.309,67.117c6.303-5.229,1.609-10.082,2.107-16.023c0.266-3.161,0.516-6.144,1.559-7.789    c5.801-9.159,19.483-11.938,19.624-11.967l6.423-1.258l-4.252-4.973c-0.551-0.644-18.009-17.301-45.029-8.579    c-18.895,6.095-32.885,26.763-33.405,27.598l9.472,4.456c0.115-0.176,11.176-19.603,27.389-24.831    c13.105-4.229,25.184-0.206,30.355,2.431c-5.497,2.196-12.691,6.195-17.024,13.036c-2.044,3.231-2.386,7.299-2.718,11.238    c-0.439,5.215-0.854,10.138-4.693,13.326L266.309,67.117z"/> <path fill="#463014" d="M283.14,143.45c0,0-7.937-9.847-10.289-29.008c-0.924-7.547,0.714-22.433,3.339-28.16    c-0.477,14.079,3.105,28.16,3.105,28.16S281.709,140.586,283.14,143.45z"/> <path fill="#463014" d="M241.271,57.172c0.004-0.021,2.548-11.138,9.602-16.75c9.948-7.914,22.097-3.704,22.21-3.667l1.769-5.449    c-0.59-0.191-14.473-4.566-27.273,4.429c-12.873,9.046-14.414,17.246-14.552,18.152L241.271,57.172z"/> <path fill="#463014" d="M258.203,136.388c0,0,4.166-5.964,3.413-12.523c-0.369-3.239-1.87-6.564-4.55-7.744    c-4.98-2.188-7.188,3.457-7.188,3.457S256.888,121.308,258.203,136.388z"/> <path fill="#463014" d="M206.916,257.84"/> <path fill="#463014" d="M212.461,145.478c-0.174,0.325-0.264,0.507-0.264,0.507s12.99,9.752,26.307-0.144    c7.133-5.302,6.459-18.417,4.271-23.979c-5.676,1.287-10.492,3.607-14.52,6.316c5.089-4.541,9.543-7.884,9.527-7.961l5.787-1.637    l11.239-3.852c0.144,0.857,4.243,20.074-7.595,33.168c-5.244,5.806-29.834,18.808-41.506-3.424L212.461,145.478z"/> <path fill="#463014" d="M213.674,146.907c-7.316,11.135-25.77,4.772-25.451-7c0,0,12.33,6.807,23.227-5.726    c6.362-7.317,26.752-27.492,54.397-20.787C246.756,117.592,221.479,135.035,213.674,146.907z"/> <g> <path fill="#463014" d="M206.916,257.84"/> </g> <path fill="#463014" d="M268.431,178.333c-1.761,1.017-7.971,7.445-7.971,17.059c-0.004,4.821,0.477,29.04,2.866,43.836    c-3.59,2.332-6.09,2.828-9.664,5.205c-1.789-17.136-3.076-41.972-2.474-51.998c0.683-11.429,6.8-19.099,12.474-22.37    c1.777-1.022,3.635-2.027,5.509-3.038c9.72-5.252,19.771-10.685,19.771-19.962c0-7.257-2.824-9.527-5.811-11.933l-0.318-0.261    c-1.982-1.601-4.229-3.417-5.554-6.399c-3.627-8.153-4.222-28.921-0.004-34.193c2.103-2.627,7.742-11.461,6.122-17.397    c-0.621-2.266-2.049-3.945-4.371-5.135c-2.459-1.259-5.775-1.897-9.867-1.897c-8.025,0-16.936,2.444-21.527,3.899    c-16.419,5.204-36.231,20.208-41.914,24.683c-0.162,0.125-0.256,0.198-0.274,0.21l-3.636,2.527l2.273-3.803    c0.144-0.237,14.535-23.905,40.271-32.583c5.008-1.688,14.844-4.521,24.512-4.521c5.756,0,10.635,1.005,14.506,2.985    c4.714,2.411,7.904,6.258,9.232,11.121c3.25,11.921-7.336,25.194-7.697,25.618c-1.234,2.203-1.756,18.206,1.091,24.611    c0.392,0.884,1.467,1.753,2.831,2.851c0.426,0.345,0.899,0.703,1.408,1.086c4.023,3.036,10.102,7.623,10.102,18.196    c0,14.467-14.662,22.311-26.441,28.618C271.941,176.388,270.094,177.372,268.431,178.333z"/> <path fill="#463014" d="M250.94,65.415c-2.332-3.95-8.296-11.577-22.042-18.279c-15.34-7.477-33.094-11.272-52.777-11.281v-0.004    c0,0-0.026,0-0.038,0c0,0-0.026,0-0.038,0v0.002c-19.686,0.01-37.443,3.805-52.779,11.281    c-13.746,6.703-19.708,14.329-22.042,18.279l-1.001,1.325l11.771,2.62l0.373-0.471l0.197-0.432    c0.182-0.778,1.76-4.978,14.884-11.378c14.03-6.843,30.394-10.312,48.633-10.318c18.241,0.006,34.598,3.475,48.627,10.318    c13.125,6.4,14.708,10.6,14.888,11.378l0.196,0.432l0.369,0.471l11.775-2.62L250.94,65.415z"/> <g> <g> <path fill="#463014" d="M266.309,67.117c6.303-5.229,1.609-10.082,2.107-16.023c0.266-3.161,0.516-6.144,1.559-7.789      c5.801-9.159,19.483-11.938,19.624-11.967l6.423-1.258l-4.252-4.973c-0.551-0.644-18.009-17.301-45.029-8.579      c-18.895,6.095-32.885,26.763-33.405,27.598l9.472,4.456c0.115-0.176,11.176-19.603,27.389-24.831      c13.105-4.229,25.184-0.206,30.355,2.431c-5.497,2.196-12.691,6.195-17.024,13.036c-2.044,3.231-2.386,7.299-2.718,11.238      c-0.439,5.215-0.854,10.138-4.693,13.326L266.309,67.117z"/> </g> <g> <path fill="#463014" d="M254.178,64.147l1.326-1.104c3.53-2.928,3.926-7.657,4.352-12.684c0.342-4.045,0.695-8.23,2.862-11.652      c3.982-6.284,10.286-10.222,15.479-12.563c-3.109-1.317-8.951-3.28-16.155-3.28c-3.979,0-7.862,0.602-11.556,1.794      c-15.039,4.85-25.666,22.377-26.869,24.433l-0.451,0.713l-11.209-5.271l0.57-0.91c0.132-0.212,14.199-21.641,33.924-28.001      c5.275-1.704,10.576-2.564,15.756-2.564c18.983,0,30.193,11.317,30.289,11.431l5.317,6.216l-8.022,1.573      c-0.133,0.027-13.479,2.819-19.006,11.541c-0.916,1.45-1.156,4.317-1.416,7.361c-0.151,1.81,0.229,3.574,0.599,5.279      c0.802,3.697,1.63,7.521-3.046,11.397l-0.406,0.337L254.178,64.147z"/> </g> </g> <g> <g> <path fill="#463014" d="M241.271,57.172c0.004-0.021,2.548-11.138,9.602-16.75c9.948-7.914,22.097-3.704,22.21-3.667      l1.769-5.449c-0.59-0.191-14.473-4.566-27.273,4.429c-12.873,9.046-14.414,17.246-14.552,18.152L241.271,57.172z"/> </g> <g> <path fill="#463014" d="M231.975,54.495l0.111-0.748c0.14-0.946,1.752-9.519,14.945-18.794      c5.428-3.814,11.932-5.832,18.809-5.832c5.216,0,8.901,1.147,9.309,1.278l0.906,0.293l-2.365,7.269l-0.913-0.303      c-0.341-0.115-3.409-1.102-7.537-1.102c-5.29,0-9.923,1.552-13.767,4.615c-6.746,5.365-9.243,16.101-9.266,16.207l-0.248,1.092      L231.975,54.495z M272.465,35.576l1.175-3.619c-1.386-0.352-4.192-0.924-7.8-0.924c-6.574,0-12.533,1.846-17.709,5.484      c-10.828,7.611-13.416,14.488-14.003,16.78l6.497,2.587c0.85-3.021,3.664-11.442,9.656-16.21      c4.135-3.286,9.306-5.024,14.958-5.024C268.489,34.65,271.107,35.211,272.465,35.576z"/> </g> </g> <path fill="#463014" d="M199.242,292.559c-4.917-5.257-7.826-10.914-8.529-12.652c-0.402-0.99-0.86-2.877,0.582-4.359    c1.124-1.148,3.072-1.737,5.796-1.737h4.192c4.369,0,9.478,0,12.516,0.003l2.548,0.004c3.579,0,5.342,1.024,6.191,1.882    c1.234,1.249,1.427,2.987,0.577,5.162c-2.277,5.812-7.442,10.555-8.969,11.87c-2,1.727-4.871,2.75-7.691,2.75l0,0    C203.564,295.482,201.003,294.443,199.242,292.559z"/> <path fill="#463014" d="M203.498,147.562l10.176-0.655c0,0-2.599,4.588-4.285,10.522c-1.904,6.712,1.741,16.521,1.741,16.521    S197.553,158.58,203.498,147.562z"/> <path fill="#E78724" d="M176.085,111.211c-6.489,0-14.95-0.178-21.298-4.74c0,0,8.312,14.571,21.287,14.571l0.011-1.844    l0.011,1.844c12.976,0,21.287-14.571,21.287-14.571C191.035,111.033,182.568,111.211,176.085,111.211z"/> <path fill="#463014" d="M193.952,111.141c-6.509,3.939-12.322,5.304-17.867,5.425c-5.546-0.121-11.357-1.486-17.867-5.425    c0,0,9.479,11.567,17.819,11.656v0.007c0.015,0,0.03-0.004,0.047-0.004c0.015,0,0.03,0.004,0.047,0.004v-0.007    C184.469,122.708,193.952,111.141,193.952,111.141z"/> <g> <path fill="#463014" d="M216.207,322.367l-0.726-9.435c30.565-2.351,40.196-31.643,40.246-34.726h9.464     C265.195,285.337,252.441,319.582,216.207,322.367z"/> </g> <path fill="#FFFFFF" d="M226.389,261.016c0.569-3.273,0.624-6.377-0.066-9.427c2.758-2.07,7.696-2.839,11.404-4.041    c3.032-1.919,18.552,1.967,29.809-11.656c14.104-17.059,11.132-27.244,11.132-27.244c3.619,4.018,7.121,2.487,12.637,21.221    c5.52,18.738-2.595,31.801-17.712,44.915c-7.141,6.195-17.238,8.747-25.922,9.724c2.909-2.921-4.969-3.213-10.396-5.245    c0.434-4.384-0.295-8.64-3.563-12.067c-1.967-2.066-4.507-3.301-7.136-4.285c-0.148-0.34-0.275-0.654-0.411-0.98    C226.252,261.633,226.334,261.332,226.389,261.016z"/> <path fill="#C9C9C9" d="M237.342,279.149c0.318-0.92,0.551-1.858,0.784-2.802c0.255-1.031,1.505-3.952-0.038-0.617    c0.396-0.854,0.655-1.734,0.846-2.621c24.482-0.031,45.781-16.84,41.662-52.179c3.205-4.255,7.696,8.58,7.696,8.58    s12.257,35.588-19.397,49.381c-10.547,4.6-19.867,7.897-22.067,6.566c-4.585,0.931-8.72-2.263-10.267-4.363    C236.85,280.449,237.121,279.803,237.342,279.149z"/> <path fill="#463014" d="M226.827,255.892c-0.034-2.983-0.647-5.872-2.085-8.751c-0.102-0.198-0.219-0.388-0.326-0.581    c9.42-0.081,20.271-0.983,29.51-4.681c10.154-4.062,22.857-17.959,25.041-34.287c0,0,19.125,14.758,13.505,46.346    c-5.279,29.662-30.097,39.332-58.404,40.968c-0.015-0.192,3.185-6.8,2.173-10.845c16.07,1.168,34.045-5.042,42.727-19.32    c7.939-13.068,5.712-35.379,2.447-38.648C273.454,251.222,244.795,256.33,226.827,255.892z"/> <g> <path fill="#463014" d="M175.978,294.839"/> <path fill="#463014" d="M238.258,263.332c-3.382-3.656-9.6-8.014-23.937-8.014c0,0-27.182-0.016-38.188-0.023l0,0     c-0.015,0-0.034,0-0.047,0c0,0-0.034,0-0.047,0l0,0c-11.005,0.008-38.194,0.023-38.194,0.023     c-14.333,0-20.551,4.359-23.935,8.014c-4.929,5.321-5.702,12.723-2.292,21.975c9.061,24.626,21.794,49.645,64.419,49.68v0.004     c0.016,0,0.03-0.004,0.047-0.004c0.015,0,0.03,0.004,0.047,0.004v-0.004c42.621-0.037,55.354-25.054,64.418-49.68     C243.959,276.055,243.184,268.653,238.258,263.332z M231.622,283.58c-4.317,12.366-15.919,42.298-55.539,42.35     c-39.625-0.052-51.223-29.983-55.54-42.35c-2.389-6.861-2.207-11.938,0.559-15.092c1.889-2.156,6.229-4.729,16.12-4.729     l10.333-0.004c7.623-0.007,17.194-0.015,28.529-0.019c11.331,0.004,20.907,0.012,28.528,0.019l10.329,0.004     c9.894,0,14.233,2.572,16.123,4.729C233.827,271.645,234.011,276.719,231.622,283.58z"/> </g> <path fill="#463014" d="M223.863,237.902c5.094,14.949,15.498,27.047,15.498,27.047s-14.312-0.651-15.103-3.184    c-0.581-1.867-12.921-30.752-17.657-64.589C211.053,204.495,223.426,236.622,223.863,237.902z"/></g>
	</g>
</g>
</svg>